<?xml version="1.0" encoding="utf-8"?>
<!-- Generator: Adobe Illustrator 16.0.0, SVG Export Plug-In . SVG Version: 6.00 Build 0)  -->
<!DOCTYPE svg PUBLIC "-//W3C//DTD SVG 1.1//EN" "http://www.w3.org/Graphics/SVG/1.1/DTD/svg11.dtd">
<svg version="1.1" id="Layer_1" xmlns="http://www.w3.org/2000/svg" xmlns:xlink="http://www.w3.org/1999/xlink" x="0px" y="0px"
	 width="97.901px" height="45.659px" viewBox="0 0 97.901 45.659" enable-background="new 0 0 97.901 45.659" xml:space="preserve">
<g>
	<defs>
		<rect id="SVGID_1_" width="97.901" height="45.659"/>
	</defs>
	<clipPath id="SVGID_2_">
		<use xlink:href="#SVGID_1_"  overflow="visible"/>
	</clipPath>
	<path clip-path="url(#SVGID_2_)" fill="#0095EB" d="M83.597,25.197c-1.367,0.096-1.923-0.916-2.016-2.243
		c-0.091-1.286,0.246-2.846,0.659-3.845c0.694-1.625,1.833-3.28,3.361-3.388c0.401-0.027,0.812,0.066,1.271,0.274
		c-0.771,2.843-1.241,6.513-1.191,7.803C85.131,24.605,84.44,25.138,83.597,25.197 M96.672,16.283
		c-2.159,3.787-4.792,8.335-6.4,8.447c-0.723,0.051-1.122-0.446-1.224-1.893c0,0,3.104-5.309,2.876-8.567
		c-0.092-1.326-1.547-1.912-2.874-1.819c-0.523,0.037-1.009,0.597-1.434,1.475c-0.609-0.645-1.743-1.252-2.79-1.18
		c-4.906,0.345-7.763,7.454-7.509,11.073c0.227,3.257,1.682,4.975,4.496,4.778c1.85-0.129,3.279-1.078,4.312-2.484
		c0.444,1.141,1.238,2.095,2.566,2.003c3.175-0.222,4.923-3.536,9.117-11.185c0.069-0.167,0.102-0.29,0.089-0.451
		c-0.022-0.323-0.242-0.59-0.646-0.562C97.013,15.935,96.818,16.07,96.672,16.283 M67.141,11.194
		c-1.688,5.331-2.7,11.101-2.505,13.875c0.227,3.256,2.139,4.578,4.31,4.426c2.895-0.203,4.066-1.376,10.284-11.267
		c0.11-0.17,0.139-0.333,0.128-0.495c-0.025-0.362-0.325-0.583-0.646-0.559c-0.201,0.014-0.435,0.149-0.618,0.406
		c-5.26,8.005-6.48,8.455-7.405,8.519c-0.885,0.062-1.312-0.838-1.413-2.285c-0.112-1.608,0.435-4.193,0.435-4.193
		c0.981-1.563,3.595-5.222,5.503-9.153c5.553-0.913,9.989-2.759,9.813-5.293C84.91,3.526,83.386,3.109,82.1,3.198
		c-0.966,0.067-1.788,0.45-1.762,0.811c0.019,0.282,0.427,0.334,0.465,0.896c0.076,1.086-1.424,2.726-4.789,3.73
		c0.826-2.038,1.369-4.097,1.243-5.906c-0.126-1.81-0.925-2.845-2.735-2.719c-2.574,0.181-5.019,4.514-6.842,9.652l-0.161,0.011
		c-1.77,0.124-2.772,0.801-2.743,1.201c0.007,0.122,0.094,0.196,0.297,0.221C65.767,11.21,67.141,11.194,67.141,11.194
		 M70.854,15.178c0,0,0.581-2.1,1.316-4.294c0.358-0.066,0.722-0.09,1.084-0.116C72.578,12.107,71.755,13.621,70.854,15.178
		 M74.563,5.828c0.161-0.013,0.294,0.14,0.31,0.382c0.038,0.522-0.295,1.556-0.885,2.931l-1.279,0.211
		C73.386,7.484,74.121,5.857,74.563,5.828 M51.828,27.42c-1.367,0.096-1.923-0.917-2.016-2.244c-0.09-1.286,0.245-2.846,0.66-3.843
		c0.694-1.626,1.832-3.282,3.36-3.388c0.402-0.029,0.812,0.063,1.271,0.274c-0.772,2.841-1.241,6.512-1.191,7.802
		C53.363,26.828,52.672,27.361,51.828,27.42 M64.903,18.503c-2.16,3.79-4.791,8.337-6.399,8.45c-0.723,0.05-1.122-0.447-1.224-1.894
		c0,0,3.104-5.31,2.876-8.566c-0.093-1.328-1.548-1.913-2.874-1.819c-0.523,0.035-1.01,0.596-1.434,1.473
		c-0.609-0.644-1.743-1.251-2.79-1.179c-4.906,0.344-7.763,7.454-7.51,11.072c0.228,3.258,1.682,4.973,4.497,4.777
		c1.85-0.13,3.277-1.079,4.312-2.483c0.444,1.14,1.238,2.095,2.564,2.002c3.177-0.223,4.925-3.537,9.118-11.184
		c0.07-0.166,0.102-0.291,0.09-0.452c-0.022-0.321-0.243-0.588-0.646-0.56C65.243,18.157,65.051,18.292,64.903,18.503
		 M46.339,20.004c0,0-5.168,8.726-8.466,8.957c-0.724,0.051-1.351-0.269-1.417-1.193c-0.11-1.568,0.889-4.063,2.841-6.18
		c0,0,3.121-1.026,3.016-2.515c-0.059-0.844-0.56-1.657-1.807-1.569c-1.206,0.083-2.473,1.627-4.725,1.784
		c-1.085,0.076-1.674-0.246-1.674-0.246c0.165-0.538,0.204-1.146,0.161-1.75c-0.116-1.648-0.958-3.286-2.405-3.185
		c-2.051,0.144-2.986,2.391-2.86,4.2c0.19,2.694,3.243,4.177,6.219,3.97c0,0-3.806,3.943-3.609,6.758
		c0.139,1.971,1.421,2.972,3.672,2.814c6.515-0.456,12.188-11.197,12.188-11.197c0.068-0.166,0.095-0.37,0.087-0.491
		c-0.026-0.362-0.284-0.585-0.605-0.564C46.757,19.61,46.524,19.749,46.339,20.004 M12.962,41.411
		c-0.724,0.05-1.282-0.436-1.333-1.159c-0.089-1.286,2.283-3.19,4.882-4.746C15.857,38.299,14.412,41.311,12.962,41.411
		 M19.216,6.019c1.931-0.133,2.8,0.734,2.874,1.781c0.235,3.377-5.272,4.369-7.604,4.533c-1.608,0.111-3.07,0.011-4.308-0.347
		C12.492,8.672,15.678,6.267,19.216,6.019 M30.777,21.658c0.069-0.166,0.101-0.291,0.089-0.452c-0.022-0.321-0.243-0.588-0.646-0.56
		c-0.241,0.016-0.434,0.151-0.581,0.363c-1.283,1.868-3.685,6.238-7.944,9.486c0.218-2.077,0.262-3.776,0.275-4.747
		c0,0,2.331-3.073,2.115-6.169c-0.117-1.649-0.66-2.5-2.349-2.382c-2.535,0.177-3.792,5.317-4.088,9.742
		c-1.816,2.35-4.1,4.368-6.552,4.539c-2.735,0.192-4.729-1.729-5.012-5.791c-0.259-3.7,0.969-8.109,2.57-11.212
		c1.872,0.193,4.059,0.241,6.632,0.062c10.294-0.719,12.822-5.019,12.67-7.191c-0.152-2.171-1.729-3.918-7.037-3.549
		c-4.745,0.333-9.517,3.172-13.25,6.989c-1.022-0.736-1.656-1.703-1.726-2.708C5.796,5.947,8.02,5.388,7.992,4.986
		C7.986,4.905,7.857,4.792,7.576,4.813C3.232,5.116,0.236,7.346,0.41,9.839c0.099,1.408,1.582,2.961,4.719,3.914
		c-3.33,4.396-5.396,9.51-5.101,13.733c0.421,6.031,4.13,8.198,9.115,7.848c2.493-0.175,5.494-1.758,8.111-4.205l-0.333,2.166
		c-5.88,3.159-8.564,5.811-8.358,8.747c0.157,2.254,2.001,3.78,4.535,3.604c5.55-0.388,7.604-7.402,8.374-13.154
		C26.975,28.551,29.286,24.024,30.777,21.658"/>
</g>
</svg>
